<?xml version="1.0" encoding="UTF-8" standalone="no"?>
<svg
   xmlns:dc="http://purl.org/dc/elements/1.1/"
   xmlns:cc="http://creativecommons.org/ns#"
   xmlns:rdf="http://www.w3.org/1999/02/22-rdf-syntax-ns#"
   xmlns:svg="http://www.w3.org/2000/svg"
   xmlns="http://www.w3.org/2000/svg"
   xmlns:xlink="http://www.w3.org/1999/xlink"
   xmlns:sodipodi="http://sodipodi.sourceforge.net/DTD/sodipodi-0.dtd"
   xmlns:inkscape="http://www.inkscape.org/namespaces/inkscape"
   inkscape:version="1.0 (4035a4f, 2020-05-01)"
   sodipodi:docname="logo.svg"
   id="svg6956"
   version="1.1"
   viewBox="0 0 207 53"
   height="53px"
   width="207px">
  <metadata
     id="metadata6960">
    <rdf:RDF>
      <cc:Work
         rdf:about="">
        <dc:format>image/svg+xml</dc:format>
        <dc:type
           rdf:resource="http://purl.org/dc/dcmitype/StillImage" />
        <dc:title>logo-svg</dc:title>
      </cc:Work>
    </rdf:RDF>
  </metadata>
  <sodipodi:namedview
     inkscape:current-layer="svg6956"
     inkscape:window-maximized="1"
     inkscape:window-y="27"
     inkscape:window-x="0"
     inkscape:cy="11.832149"
     inkscape:cx="82.30848"
     inkscape:zoom="5.69"
     showgrid="false"
     id="namedview6958"
     inkscape:window-height="713"
     inkscape:window-width="1366"
     inkscape:pageshadow="2"
     inkscape:pageopacity="0"
     guidetolerance="10"
     gridtolerance="10"
     objecttolerance="10"
     borderopacity="1"
     bordercolor="#666666"
     pagecolor="#ffffff" />
  <!-- Generator: Sketch 53.1 (72631) - https://sketchapp.com -->
  <title
     id="title6918">logo-svg</title>
  <desc
     id="desc6920">Created with Sketch.</desc>
  <defs
     id="defs6935">
    <linearGradient
       id="linearGradient8067"
       inkscape:collect="always">
      <stop
         id="stop8063"
         offset="0"
         style="stop-color:#ff8080;stop-opacity:1" />
      <stop
         id="stop8065"
         offset="1"
         style="stop-color:#ff0000;stop-opacity:1" />
    </linearGradient>
    <linearGradient
       id="linearGradient7006"
       inkscape:collect="always">
      <stop
         id="stop7002"
         offset="0"
         style="stop-color:#ff80b2;stop-opacity:1;" />
      <stop
         id="stop7004"
         offset="1"
         style="stop-color:#d40055;stop-opacity:1" />
    </linearGradient>
    <linearGradient
       id="linearGradient-1"
       y2="50%"
       x2="100%"
       y1="50%"
       x1="0%">
      <stop
         id="stop6922"
         offset="0%"
         stop-color="#FF7373" />
      <stop
         id="stop6924"
         offset="100%"
         stop-color="#FDDB33" />
    </linearGradient>
    <path
       id="path-2"
       d="M74.2326565,17.8165181 L74.2326565,35.0935181 C74.2326565,39.0195377 73.1666672,41.9640083 71.0346565,43.9270181 C68.9026459,45.8900279 65.8346766,46.8715181 61.8306565,46.8715181 C59.7506461,46.8715181 57.8006656,46.6375204 55.9806565,46.1695181 C54.1606474,45.7015157 52.6136629,45.0125226 51.3396565,44.1025181 L54.0306565,38.9155181 C54.8886608,39.6175216 55.97415,40.1700161 57.2871565,40.5730181 C58.6001631,40.9760201 59.8936502,41.1775181 61.1676565,41.1775181 C63.1176663,41.1775181 64.547652,40.7485224 65.4576565,39.8905181 C66.3676611,39.0325138 66.8226565,37.7585265 66.8226565,36.0685181 L66.8226565,35.3665181 C65.3926494,37.0305264 63.2996703,37.8625181 60.5436565,37.8625181 C58.6716472,37.8625181 56.9426645,37.4400223 55.3566565,36.5950181 C53.7706486,35.7500138 52.5096612,34.5540258 51.5736565,33.0070181 C50.6376519,31.4600103 50.1696565,29.6725282 50.1696565,27.6445181 C50.1696565,25.6425081 50.6376519,23.8680258 51.5736565,22.3210181 C52.5096612,20.7740103 53.7706486,19.5780223 55.3566565,18.7330181 C56.9426645,17.8880138 58.6716472,17.4655181 60.5436565,17.4655181 C63.5596716,17.4655181 65.7696495,18.4405083 67.1736565,20.3905181 L67.1736565,17.8165181 L74.2326565,17.8165181 Z M62.2986565,31.9735181 C63.6246632,31.9735181 64.7231522,31.5705221 65.5941565,30.7645181 C66.4651609,29.958514 66.9006565,28.9185244 66.9006565,27.6445181 C66.9006565,26.3705117 66.4716608,25.337022 65.6136565,24.5440181 C64.7556523,23.7510141 63.6506633,23.3545181 62.2986565,23.3545181 C60.9466498,23.3545181 59.8351609,23.7510141 58.9641565,24.5440181 C58.0931522,25.337022 57.6576565,26.3705117 57.6576565,27.6445181 C57.6576565,28.9185244 58.0996521,29.958514 58.9836565,30.7645181 C59.867661,31.5705221 60.9726499,31.9735181 62.2986565,31.9735181 Z M100.596657,28.4245181 C100.596657,28.4765183 100.557657,29.0875122 100.479657,30.2575181 L85.1136565,30.2575181 C85.4256581,31.3495235 86.0301521,32.1880151 86.9271565,32.7730181 C87.824161,33.358021 88.9486498,33.6505181 90.3006565,33.6505181 C91.3146616,33.6505181 92.1921528,33.5075195 92.9331565,33.2215181 C93.6741603,32.9355166 94.4216528,32.4675213 95.1756565,31.8175181 L99.0756565,35.8735181 C97.0216463,38.1615295 94.0186763,39.3055181 90.0666565,39.3055181 C87.5966442,39.3055181 85.4256659,38.8375228 83.5536565,37.9015181 C81.6816472,36.9655134 80.2321617,35.6655264 79.2051565,34.0015181 C78.1781514,32.3375098 77.6646565,30.4525286 77.6646565,28.3465181 C77.6646565,26.2665077 78.1651515,24.4010263 79.1661565,22.7500181 C80.1671616,21.0990098 81.5516477,19.8055228 83.3196565,18.8695181 C85.0876654,17.9335134 87.0766455,17.4655181 89.2866565,17.4655181 C91.3926671,17.4655181 93.303648,17.9010137 95.0196565,18.7720181 C96.7356651,19.6430224 98.0941515,20.9040098 99.0951565,22.5550181 C100.096162,24.2060263 100.596657,26.1625068 100.596657,28.4245181 Z M89.3256565,22.7305181 C88.1816508,22.7305181 87.2261604,23.0555148 86.4591565,23.7055181 C85.6921527,24.3555213 85.2046576,25.2395125 84.9966565,26.3575181 L93.6546565,26.3575181 C93.4466555,25.2395125 92.9591604,24.3555213 92.1921565,23.7055181 C91.4251527,23.0555148 90.4696623,22.7305181 89.3256565,22.7305181 Z M118.614657,38.0965181 C117.990653,38.48652 117.230161,38.785517 116.333157,38.9935181 C115.436152,39.2015191 114.480662,39.3055181 113.466657,39.3055181 C110.710643,39.3055181 108.591664,38.6295248 107.109657,37.2775181 C105.627649,35.9255113 104.886657,33.9105315 104.886657,31.2325181 L104.886657,24.1345181 L101.805657,24.1345181 L101.805657,18.5965181 L104.886657,18.5965181 L104.886657,13.0975181 L112.296657,13.0975181 L112.296657,18.5965181 L117.132657,18.5965181 L117.132657,24.1345181 L112.296657,24.1345181 L112.296657,31.1545181 C112.296657,31.9085218 112.498155,32.5000159 112.901157,32.9290181 C113.304159,33.3580202 113.843653,33.5725181 114.519657,33.5725181 C115.377661,33.5725181 116.131653,33.3515203 116.781657,32.9095181 L118.614657,38.0965181 Z M131.055657,31.5445181 L128.871657,33.7675181 L128.871657,38.9545181 L121.461657,38.9545181 L121.461657,10.0165181 L128.871657,10.0165181 L128.871657,25.1875181 L136.437657,17.8165181 L145.212657,17.8165181 L136.437657,26.8645181 L145.953657,38.9545181 L136.983657,38.9545181 L131.055657,31.5445181 Z M158.082657,39.3055181 C155.742645,39.3055181 153.649666,38.8375228 151.803657,37.9015181 C149.957647,36.9655134 148.521162,35.6655264 147.494157,34.0015181 C146.467151,32.3375098 145.953657,30.4525286 145.953657,28.3465181 C145.953657,26.2405075 146.467151,24.3620263 147.494157,22.7110181 C148.521162,21.0600098 149.957647,19.7730227 151.803657,18.8500181 C153.649666,17.9270135 155.742645,17.4655181 158.082657,17.4655181 C160.474669,17.4655181 162.541648,17.9790129 164.283657,19.0060181 C166.025665,20.0330232 167.260653,21.456509 167.988657,23.2765181 L162.255657,26.2015181 C161.293652,24.3035086 159.889666,23.3545181 158.043657,23.3545181 C156.71765,23.3545181 155.619161,23.7965137 154.748157,24.6805181 C153.877152,25.5645225 153.441657,26.7865103 153.441657,28.3465181 C153.441657,29.932526 153.877152,31.1740136 154.748157,32.0710181 C155.619161,32.9680226 156.71765,33.4165181 158.043657,33.4165181 C159.889666,33.4165181 161.293652,32.4675276 162.255657,30.5695181 L167.988657,33.4945181 C167.260653,35.3145272 166.025665,36.7380129 164.283657,37.7650181 C162.541648,38.7920232 160.474669,39.3055181 158.082657,39.3055181 Z M179.805657,17.4655181 C183.315674,17.4655181 185.993647,18.2650101 187.839657,19.8640181 C189.685666,21.4630261 190.608657,23.9135016 190.608657,27.2155181 L190.608657,38.9545181 L183.705657,38.9545181 L183.705657,36.2245181 C182.639651,38.2785283 180.559672,39.3055181 177.465657,39.3055181 C175.827648,39.3055181 174.410663,39.0195209 173.214657,38.4475181 C172.018651,37.8755152 171.11516,37.1020229 170.504157,36.1270181 C169.893153,35.1520132 169.587657,34.0405243 169.587657,32.7925181 C169.587657,30.7905081 170.354649,29.2370236 171.888657,28.1320181 C173.422664,27.0270125 175.788641,26.4745181 178.986657,26.4745181 L183.198657,26.4745181 C183.068656,24.2385069 181.573671,23.1205181 178.713657,23.1205181 C177.699651,23.1205181 176.672662,23.2830164 175.632657,23.6080181 C174.592651,23.9330197 173.70866,24.3815152 172.980657,24.9535181 L170.484657,19.9225181 C171.654662,19.1425142 173.078148,18.5380202 174.755157,18.1090181 C176.432165,17.6800159 178.115648,17.4655181 179.805657,17.4655181 Z M179.532657,34.6255181 C180.390661,34.6255181 181.144653,34.4175202 181.794657,34.0015181 C182.44466,33.585516 182.912655,32.9745221 183.198657,32.1685181 L183.198657,30.3355181 L180.000657,30.3355181 C177.842646,30.3355181 176.763657,31.0505109 176.763657,32.4805181 C176.763657,33.1305213 177.010654,33.6505161 177.504657,34.0405181 C177.998659,34.43052 178.674652,34.6255181 179.532657,34.6255181 Z M195.288657,10.0165181 L202.698657,10.0165181 L202.698657,38.9545181 L195.288657,38.9545181 L195.288657,10.0165181 Z" />
    <filter
       id="filter-3"
       filterUnits="objectBoundingBox"
       height="138.0%"
       width="109.2%"
       y="-13.6%"
       x="-4.6%">
      <feOffset
         id="feOffset6928"
         result="shadowOffsetOuter1"
         in="SourceAlpha"
         dy="2"
         dx="0" />
      <feGaussianBlur
         id="feGaussianBlur6930"
         result="shadowBlurOuter1"
         in="shadowOffsetOuter1"
         stdDeviation="2" />
      <feColorMatrix
         id="feColorMatrix6932"
         in="shadowBlurOuter1"
         type="matrix"
         values="0 0 0 0 0   0 0 0 0 0   0 0 0 0 0  0 0 0 0.44178868 0" />
    </filter>
    <linearGradient
       gradientUnits="userSpaceOnUse"
       y2="109.71873"
       x2="81.482552"
       y1="29.045755"
       x1="79.552475"
       id="linearGradient7008"
       xlink:href="#linearGradient7006"
       inkscape:collect="always" />
    <linearGradient
       gradientTransform="matrix(1.0195526,0,0,1.0195526,5.8896942,-1.9038279)"
       inkscape:collect="always"
       xlink:href="#linearGradient8067"
       id="linearGradient6029"
       gradientUnits="userSpaceOnUse"
       x1="188.05952"
       y1="12.000833"
       x2="9.7548122"
       y2="44.096027" />
    <linearGradient
       inkscape:collect="always"
       id="linearGradient6035">
      <stop
         style="stop-color:#fccb90;stop-opacity:0.9959209"
         offset="0"
         id="stop6031" />
      <stop
         style="stop-color:#d57eeb;stop-opacity:0.99561048"
         offset="1"
         id="stop6033" />
    </linearGradient>
    <linearGradient
       inkscape:collect="always"
       xlink:href="#linearGradient6035"
       id="linearGradient8032"
       gradientUnits="userSpaceOnUse"
       x1="188.05952"
       y1="12.000833"
       x2="77.20079"
       y2="22.165483" />
  </defs>
  <path
     style="fill:#aa0044;stroke-width:0.0890656"
     id="path7141"
     fill="#00d1b3"
     d="m 27.129445,29.003452 2.664848,2.664847 c 0.95336,0.953361 2.534723,0.843542 3.338275,-0.239052 2.121368,-2.85821 3.375951,-6.397417 3.375951,-10.229115 l -3.187666,-1.960872 -2.959122,1.960872 z" />
  <path
     style="fill:#c83737;stroke-width:0.0890656"
     id="path7143"
     fill="#fbf4ad"
     d="M 19.326037,10.163547 17.54009,7.1844746 19.326037,4.0168502 c 4.744711,0 9.040176,1.9230192 12.149373,5.0331067 v 8.251e-4 l -0.565568,3.613131 -3.780486,0.731943 z" />
  <path
     style="fill:#ff8080;stroke-width:0.0890656"
     id="path7145"
     fill="#ffa875"
     d="M 8.2895404,21.200043 5.5949441,23.184339 2.1427548,21.200043 c 0,-4.744712 1.9230192,-9.040176 5.0331067,-12.1493732 l 3.6793965,0.7090527 0.666657,3.6361105 z" />
  <path
     style="fill:#ff0000;stroke-width:0.0890656"
     id="path7147"
     fill="#ff995d"
     d="m 5.483612,21.488616 c 0,-4.57522 1.5707641,-8.757303 4.1657845,-11.9612661 L 7.1758615,9.0506698 C 4.065774,12.159867 2.1427548,16.455331 2.1427548,21.200043 l 3.4521893,1.984207 0.00579,-0.0042 C 5.5251196,22.623052 5.4836147,22.059088 5.4836147,21.488622 Z" />
  <path
     style="fill:#ff5555;stroke-width:0.0890656"
     id="path7149"
     fill="#fdd89f"
     d="M 11.521826,13.395833 7.1758615,9.0506698 V 9.0498447 C 10.285059,5.9397572 14.580434,4.016738 19.326037,4.016738 v 6.146786 z" />
  <path
     id="path7151"
     fill="#ff8997"
     d="M 8.2895404,21.200043 H 2.1427548 c 0,3.831787 1.2545803,7.370905 3.3759493,10.229115 0.8035513,1.082594 2.3849138,1.192413 3.338274,0.239052 l 2.6648479,-2.664847 z"
     style="stroke-width:0.0890656" />
  <path
     style="fill:#d35f5f;stroke-width:0.0890656"
     id="path7153"
     fill="#50e1cd"
     d="M 27.129445,13.395833 31.47541,9.0506698 c 3.110087,3.1091972 5.033109,7.4045722 5.033109,12.1493732 h -6.146788 z" />
  <path
     style="fill:#ffaaaa;stroke-width:0.0890656"
     id="path7155"
     fill="#d6d6d6"
     d="m 30.361731,21.200043 c 0,3.047653 -1.235075,5.806198 -3.232286,7.803409 -1.997211,1.997211 -4.755667,3.232286 -7.803408,3.232286 -3.047653,0 -5.807,-1.235075 -7.804211,-3.232286 -1.997211,-1.997211 -3.2322856,-4.755667 -3.2322856,-7.803409 0,-3.047742 1.2350746,-5.807 3.2322856,-7.80421 1.997211,-1.997211 4.756558,-3.232286 7.804211,-3.232286 3.047652,0 5.806197,1.235075 7.803408,3.232286 1.997211,1.99721 3.232286,4.756557 3.232286,7.80421 z" />
  <path
     style="fill:#ff2a2a;stroke-width:0.0890656"
     id="path7157"
     fill="#ff8997"
     d="m 18.361098,18.885847 4.720575,-3.519523 c 0.657395,-0.490129 1.587597,-0.354571 2.077726,0.302823 0.401687,0.538759 0.381736,1.262062 0,1.774903 l -3.519523,4.720575 c -0.773447,1.037349 -2.24134,1.251285 -3.278778,0.477927 -1.238638,-0.923612 -1.27373,-2.796754 0,-3.756705 z" />
  <path
     style="fill:#ff5555;stroke-width:0.0890656"
     id="path7159"
     fill="#fdd89f"
     d="m 44.243879,27.951941 c -0.360448,-0.477571 -1.117777,-0.295253 -1.226076,0.293205 -0.198709,1.079477 -0.720902,2.521274 -2.056355,3.649202 0.297305,-6.245915 -3.957816,-5.351071 -2.989583,-11.503646 0.08524,-0.541787 -0.459402,-0.961999 -0.961198,-0.740493 -1.821927,0.804354 -5.105693,3.079805 -5.105693,9.033051 -1.326101,-1.116706 -1.809817,-2.4844 -1.977795,-3.480779 -0.09459,-0.561204 -0.78547,-0.778346 -1.178696,-0.366951 -1.258499,1.316837 -2.134105,2.978092 -2.65995,4.723336 -1.054716,3.500374 -0.855298,7.347748 1.178341,10.460686 1.902266,2.911738 5.138026,4.691718 8.621478,4.691718 5.778052,0 10.462022,-4.684058 10.462022,-10.462111 2.7e-4,-2.364252 -0.783957,-4.545294 -2.106495,-6.297218 z" />
  <path
     id="path7161"
     fill="#ff6f7f"
     d="m 5.483612,21.488616 c 0,-0.09646 0.00204,-0.192471 0.00341,-0.288573 H 2.1427806 c 0,3.831698 1.2545803,7.370905 3.3759493,10.229115 0.8035514,1.082594 2.3849138,1.192413 3.338274,0.239052 L 9.2806897,31.244525 C 7.0515256,28.422297 5.483612,25.076631 5.483612,21.488616 Z"
     style="stroke-width:0.0890656" />
  <g
     style="fill:#ff2a2a"
     id="g7167"
     fill="#fbc072"
     transform="matrix(0.08906577,0,0,0.08906577,1.4747615,1.6037912)">
    <path
       style="fill:#ff2a2a"
       id="path7163"
       d="m 176.218,28.6 c -43.6,5.458 -82.672,25.457 -112.209,55.001 v 0.009 l 18.195,18.192 C 105.469,67.967 138.202,42.071 176.218,28.6 Z" />
    <path
       style="fill:#ff2a2a"
       id="path7165"
       d="m 413.948,462.174 c -66.789,0 -120.932,-41.498 -120.932,-117.359 0,-31.323 9.237,-60.19 24.777,-83.298 -2.904,-2.751 -7.763,-3.073 -10.922,0.232 -14.13,14.785 -23.961,33.437 -29.865,53.032 -11.842,39.301 -9.603,82.498 13.23,117.449 21.358,32.692 57.688,52.677 96.799,52.677 32.06,0 61.114,-12.849 82.309,-33.672 -16.596,7.228 -35.43,10.939 -55.396,10.939 z" />
  </g>
  <g
     transform="matrix(0.08906577,0,0,0.08906577,0.76570879,1.7714132)"
     style="fill:#241c22"
     id="g7181">
    <path
       style="fill:#241c22"
       d="m 238.125,148.512 -52.999,39.514 c -0.01,0.008 -0.021,0.016 -0.031,0.023 -18.218,13.73 -17.984,40.747 0.031,54.178 14.912,11.119 36.141,8.079 47.306,-6.895 l 39.518,-53.004 c 6.334,-8.51 6.332,-20.389 -0.004,-28.887 -7.965,-10.682 -23.137,-12.895 -33.821,-4.929 z m 21.797,24.857 -39.514,52.999 c -6.198,8.313 -18.003,10.033 -26.316,3.836 -9.974,-7.436 -10.205,-22.444 0.017,-30.164 l 52.982,-39.502 c 4.053,-3.022 9.81,-2.183 12.831,1.871 2.403,3.223 2.402,7.732 0,10.96 z"
       id="path7171" />
    <path
       style="fill:#241c22"
       d="m 312.426,373.953 v 12.897 c 0,4.142 3.358,7.5 7.5,7.5 4.142,0 7.5,-3.358 7.5,-7.5 v -12.897 c 0,-4.142 -3.358,-7.5 -7.5,-7.5 -4.142,0 -7.5,3.358 -7.5,7.5 z"
       id="path7173" />
    <path
       style="fill:#241c22"
       d="m 446.658,373.953 v 12.897 c 0,4.142 3.358,7.5 7.5,7.5 4.142,0 7.5,-3.358 7.5,-7.5 v -12.897 c 0,-4.142 -3.358,-7.5 -7.5,-7.5 -4.142,0 -7.5,3.358 -7.5,7.5 z"
       id="path7175" />
    <path
       style="fill:#241c22"
       d="m 399.082,381.539 c -3.039,3.488 -7.428,5.489 -12.04,5.489 -4.612,0 -9.001,-2 -12.041,-5.489 -2.722,-3.123 -7.458,-3.448 -10.582,-0.727 -3.122,2.721 -3.448,7.459 -0.727,10.581 5.889,6.758 14.4,10.633 23.349,10.633 8.949,0 17.46,-3.876 23.349,-10.634 2.721,-3.122 2.396,-7.86 -0.727,-10.581 -3.122,-2.721 -7.86,-2.395 -10.581,0.728 z"
       id="path7177" />
    <path
       style="fill:#241c22"
       d="m 88.208,342.852 24.769,-24.769 c 24.101,21.549 54.874,33.337 87.466,33.337 22.865,0 44.761,-5.775 64.285,-16.79 -14.545,88.412 45.157,157.766 122.314,157.766 21.644,0 42.979,-5.628 61.697,-16.277 3.6,-2.048 4.858,-6.627 2.81,-10.227 -2.048,-3.6 -6.628,-4.858 -10.227,-2.81 -16.462,9.365 -35.232,14.315 -54.281,14.315 -74.047,0 -129.326,-72.566 -102.843,-160.455 3.337,-11.073 7.871,-21.39 13.417,-30.617 6.965,-11.586 13.138,-17.551 14.767,-19.465 0.045,-0.008 0.168,0.012 0.256,0.083 0.671,0.533 1.828,24.354 24.849,43.741 3.075,2.587 7.811,2.316 10.529,-0.86 2.658,-3.106 1.403,-4.82 2.19,-16.181 2.582,-36.922 19.03,-68.492 52.463,-83.25 0.203,-0.09 0.391,0.049 0.354,0.287 -11.435,72.662 36.659,63.234 33.482,129.962 -0.31,6.527 7.333,10.306 12.331,6.086 16.909,-14.283 23.267,-32.541 25.622,-45.342 0.014,-0.078 0.032,-0.117 0.036,-0.124 0.048,-0.057 0.236,-0.105 0.292,-0.091 0,0 0.028,0.02 0.076,0.083 14.483,19.187 22.138,42.072 22.138,66.182 0,29.8 -11.732,57.701 -33.036,78.563 -2.959,2.898 -3.009,7.646 -0.111,10.605 2.898,2.959 7.646,3.009 10.605,0.111 C 498.668,433.01 512,401.304 512,367.438 c 0,-27.397 -8.702,-53.407 -25.166,-75.218 -7.982,-10.574 -24.729,-6.573 -27.127,6.452 -1.2,6.521 -3.662,14.772 -8.67,22.835 C 445.519,268.108 408.55,272.047 417.84,213.013 419.526,202.3 409.868,193.349 399.369,195.761 387.457,97.455 303.972,19.603 200.442,19.603 c -74.081,0 -137.324,39.776 -171.929,97.393 -2.133,3.551 -0.983,8.158 2.567,10.291 3.55,2.133 8.158,0.982 10.291,-2.568 6.534,-10.878 14.173,-21.072 22.767,-30.388 7.868,7.866 30.741,30.735 38.227,38.22 -19.435,21.734 -31.417,49.557 -33.122,79.971 H 15.17 c 0.825,-20.857 5.094,-41.179 12.723,-60.513 1.52,-3.853 -0.371,-8.209 -4.223,-9.729 -3.853,-1.52 -8.209,0.371 -9.729,4.223 -24.193,61.316 -17.633,134.768 25.463,192.832 11.743,15.823 34.865,17.457 48.804,3.517 z m 181.301,-29.136 c -20.106,14.864 -43.932,22.706 -69.067,22.706 -103.085,0 -155.807,-125.221 -82.316,-198.716 45.206,-45.204 118.856,-45.767 164.623,0 30.853,30.854 40.864,74.692 29.657,114.135 -3.954,0.01 -8.042,1.688 -10.945,4.725 0,0 -0.001,0.001 -0.002,0.002 -15.14,15.841 -25.743,36.044 -31.95,57.148 z M 207.941,34.75 c 44.223,1.748 85.7,18.93 118.198,48.968 -3.579,3.579 -28.886,28.88 -38.235,38.227 C 265.726,102.111 237.789,90.5 207.941,88.823 Z m 117.813,224.885 c 3.302,-10.477 5.278,-21.347 5.876,-32.114 h 26.1 c -12.868,17.057 -19.587,37.306 -21.931,58.801 -4.022,-6.301 -6.93,-13.636 -8.29,-21.699 -0.295,-1.747 -0.949,-3.55 -1.755,-4.988 z m 45.931,-47.113 h -40.053 c -1.667,-29.744 -13.24,-57.74 -33.122,-79.971 4.646,-4.645 33.424,-33.416 38.228,-38.22 27.569,29.879 44.555,67.958 48.304,108.404 -4.462,2.727 -9.219,6.183 -13.357,9.787 z M 192.942,34.75 v 54.072 c -30.047,1.69 -57.972,13.443 -79.972,33.123 L 74.736,83.718 C 107.234,53.681 148.715,36.498 192.942,34.75 Z M 69.243,227.521 c 1.664,29.699 13.248,57.754 33.122,79.962 l -24.763,24.763 c -7.489,7.488 -19.884,6.597 -26.154,-1.85 C 29.109,300.298 16.643,264.872 15.17,227.521 Z"
       id="path7179" />
  </g>
  <text
     id="text5921"
     y="39.545765"
     x="47.920795"
     style="font-weight:bold;font-size:40.7821px;line-height:1.25;font-family:Ubuntu;-inkscape-font-specification:'Ubuntu, Bold';fill:url(#linearGradient6029);fill-opacity:1;stroke-width:1.01956"
     xml:space="preserve"><tspan
       style="fill:url(#linearGradient6029);fill-opacity:1;stroke-width:1.01956"
       y="39.545765"
       x="47.920795"
       id="tspan5919"
       sodipodi:role="line">infoKcal</tspan></text>
</svg>
